<svg width="12" height="8" viewBox="0 0 12 8" fill="none" xmlns="http://www.w3.org/2000/svg">
<path d="M7.13667 7.99993V6.63047H11.9754V7.99993H7.13667ZM8.81423 7.99993L8.82565 0.8445L8.974 0.0114119H10.3206L10.3092 7.99993H8.81423ZM7.13667 2.5335V1.11839C7.32687 1.13361 7.52848 1.08796 7.7415 0.981447C7.96214 0.867325 8.17896 0.72277 8.39199 0.547784C8.61262 0.365189 8.80663 0.182595 8.974 0L9.95543 0.970034C9.68155 1.27436 9.39244 1.55205 9.08812 1.80312C8.7838 2.04658 8.46807 2.23679 8.14092 2.37373C7.82139 2.51068 7.48664 2.56393 7.13667 2.5335Z" fill="white"/>
<path d="M0.627661 7.99993V6.61906H2.92148C3.29427 6.61906 3.58718 6.52776 3.8002 6.34517C4.01322 6.15496 4.11974 5.9039 4.11974 5.59196C4.11974 5.26481 4.00181 5.00614 3.76596 4.81594C3.53012 4.62573 3.20678 4.53444 2.79594 4.54204H0.627661V3.33235L2.00851 3.35518C2.7541 3.35518 3.40458 3.43887 3.95997 3.60625C4.51535 3.76602 4.94521 4.01708 5.24953 4.35945C5.56145 4.70181 5.71742 5.1545 5.71742 5.7175C5.71742 6.20442 5.6071 6.61906 5.38647 6.96142C5.16584 7.30379 4.85771 7.56246 4.4621 7.73745C4.06648 7.91244 3.60239 7.99993 3.06983 7.99993H0.627661ZM0 7.99993V0.0114119H1.52921V7.99993H0ZM0.570601 4.62193V3.26388H2.73888C3.08124 3.26388 3.35133 3.17639 3.54914 3.0014C3.74694 2.82641 3.84585 2.57915 3.84585 2.25961C3.84585 1.94007 3.73553 1.69281 3.5149 1.51782C3.29427 1.33522 2.99375 1.24773 2.61335 1.25534H0.570601V0.0228238L2.70465 0C3.25242 0 3.73173 0.0874933 4.14256 0.26248C4.55339 0.429859 4.87293 0.68473 5.10117 1.0271C5.32941 1.36185 5.44353 1.7803 5.44353 2.28243C5.44353 2.69327 5.30278 3.06607 5.02129 3.40083C4.7474 3.73558 4.35939 4.00187 3.85726 4.19968C3.36274 4.39749 2.78453 4.49639 2.12263 4.49639L0.570601 4.62193Z" fill="white"/>
</svg>
