<svg width="12" height="8" viewBox="0 0 12 8" fill="none" xmlns="http://www.w3.org/2000/svg">
<path d="M7.89109 7.67456L6.38764 6.86671C6.38764 6.64979 6.45496 6.41043 6.5896 6.14863C6.72423 5.88682 6.91123 5.62502 7.15059 5.36322C7.38994 5.10141 7.67044 4.85831 7.99207 4.63391L9.18137 3.78118C9.34593 3.66898 9.49927 3.54182 9.64139 3.3997C9.79098 3.25757 9.91066 3.10423 10.0004 2.93967C10.0977 2.76763 10.1463 2.60307 10.1463 2.44599C10.1463 2.2515 10.0977 2.07572 10.0004 1.91864C9.91066 1.76156 9.77602 1.63814 9.59651 1.54838C9.41699 1.45862 9.19633 1.41374 8.93454 1.41374C8.71014 1.41374 8.50818 1.45862 8.32867 1.54838C8.15663 1.63814 8.01451 1.75782 7.90231 1.90742C7.79012 2.05702 7.71158 2.21784 7.6667 2.38989L6.0847 2.1206C6.1595 1.7466 6.32032 1.39878 6.56716 1.07713C6.81399 0.755488 7.13563 0.497425 7.53206 0.302943C7.93597 0.100981 8.39225 0 8.90088 0C9.48431 0 9.98546 0.104721 10.4043 0.314163C10.8232 0.523606 11.1448 0.811589 11.3692 1.17811C11.6011 1.53716 11.7171 1.95604 11.7171 2.43477C11.7171 2.92097 11.5824 3.35482 11.3131 3.7363C11.0513 4.1103 10.6886 4.46187 10.2248 4.79099L9.15893 5.56518C8.94202 5.7073 8.73632 5.87934 8.54184 6.0813C8.34737 6.27579 8.19029 6.50393 8.07061 6.76573C7.95093 7.02005 7.89109 7.323 7.89109 7.67456ZM6.38764 7.99994V6.86671L7.53206 6.65353H11.818V7.99994H6.38764Z" fill="white"/>
<path d="M0.61709 8V6.64237H2.87227C3.23879 6.64237 3.52676 6.55261 3.7362 6.37308C3.94564 6.18608 4.05035 5.93924 4.05035 5.63256C4.05035 5.31091 3.93442 5.05659 3.70254 4.86959C3.47066 4.68259 3.15277 4.59282 2.74886 4.6003H0.61709V3.41097L1.97469 3.43341C2.70772 3.43341 3.34725 3.51569 3.89328 3.68025C4.43931 3.83734 4.86192 4.08418 5.16112 4.42078C5.46779 4.75739 5.62113 5.20245 5.62113 5.75598C5.62113 6.2347 5.51267 6.64237 5.29575 6.97897C5.07884 7.31557 4.7759 7.5699 4.38695 7.74194C3.99799 7.91398 3.54172 8 3.01813 8H0.61709ZM0 8V0.145917H1.50346V8H0ZM0.560991 4.67885V3.34365H2.69276C3.02935 3.34365 3.29489 3.25763 3.48936 3.08559C3.68384 2.91355 3.78108 2.67044 3.78108 2.35628C3.78108 2.04212 3.67262 1.79902 3.4557 1.62697C3.23879 1.44745 2.94333 1.36143 2.56934 1.36891H0.560991V0.157137L2.6591 0.134698C3.19765 0.134698 3.66888 0.220718 4.07279 0.39276C4.47671 0.557322 4.79086 0.807905 5.01526 1.14451C5.23965 1.47363 5.35185 1.88504 5.35185 2.37872C5.35185 2.78265 5.21347 3.14917 4.93672 3.47829C4.66744 3.80742 4.28597 4.06922 3.7923 4.2637C3.30611 4.45818 2.73764 4.55542 2.08689 4.55542L0.560991 4.67885Z" fill="white"/>
</svg>
