<svg width="32" height="32" viewBox="0 0 32 32" fill="none" xmlns="http://www.w3.org/2000/svg">
<path d="M18.634 3.19978C17.1259 1.88019 14.8741 1.88018 13.366 3.19978L5.36598 10.1998C4.49792 10.9593 4 12.0566 4 13.2101V24C4 26.2092 5.79086 28 8 28H10.6667C12.1394 28 13.3333 26.8061 13.3333 25.3334V21.3334C13.3333 19.8606 14.5272 18.6667 16 18.6667C17.4728 18.6667 18.6667 19.8606 18.6667 21.3334V25.3334C18.6667 26.8061 19.8606 28 21.3333 28H24C26.2091 28 28 26.2092 28 24V13.2101C28 12.0566 27.5021 10.9593 26.634 10.1998L18.634 3.19978Z" fill="#0B0C11"/>
</svg>
