<svg width="12" height="8" viewBox="0 0 12 8" fill="none" xmlns="http://www.w3.org/2000/svg">
<path d="M8.89821 8.00004C8.44149 8.00004 8.02896 7.93374 7.66064 7.80114C7.29231 7.66118 6.98292 7.46596 6.73246 7.2155C6.48936 6.95767 6.31993 6.65565 6.22417 6.30942L7.61644 5.90058C7.66801 5.98898 7.73799 6.09948 7.82639 6.23207C7.91478 6.3573 8.03633 6.46412 8.19103 6.55252C8.34573 6.64091 8.5483 6.68511 8.79877 6.68511C9.16709 6.68511 9.45807 6.58567 9.6717 6.38677C9.89269 6.18051 10.0032 5.91531 10.0032 5.59119C10.0032 5.37019 9.94794 5.17498 9.83744 5.00555C9.72695 4.83612 9.54647 4.7072 9.29601 4.61881C9.05291 4.52304 8.73247 4.47516 8.33468 4.47516H7.87058V3.44753H8.27943C8.72142 3.44753 9.13763 3.50278 9.52805 3.61328C9.91848 3.71641 10.261 3.8711 10.5557 4.07737C10.8577 4.27626 11.0934 4.51936 11.2629 4.80665C11.4323 5.08658 11.517 5.40702 11.517 5.76798C11.517 6.23207 11.3955 6.63355 11.1524 6.97241C10.9093 7.3039 10.5888 7.55805 10.191 7.73484C9.79325 7.91164 9.36231 8.00004 8.89821 8.00004ZM7.87058 4.19891V3.23758H8.33468C8.85033 3.23758 9.23339 3.14919 9.48385 2.97239C9.73431 2.79559 9.85954 2.5525 9.85954 2.2431C9.85954 2.06631 9.81535 1.90793 9.72695 1.76796C9.63855 1.628 9.51332 1.5175 9.35125 1.43647C9.18919 1.35544 9.00135 1.31492 8.78772 1.31492C8.64775 1.31492 8.5041 1.34071 8.35677 1.39227C8.20944 1.43647 8.07316 1.51382 7.94793 1.62432C7.83007 1.72745 7.7343 1.87846 7.66064 2.07736L6.29047 1.66852C6.3936 1.30756 6.57039 1.00553 6.82086 0.762435C7.07868 0.511973 7.38439 0.324126 7.73799 0.198896C8.09158 0.0662987 8.45622 0 8.83192 0C9.31074 0 9.74168 0.0920814 10.1247 0.276244C10.5078 0.45304 10.8098 0.699819 11.0308 1.01658C11.2518 1.33334 11.3623 1.69798 11.3623 2.11051C11.3623 2.4641 11.2776 2.76981 11.1082 3.02764C10.9387 3.28547 10.7067 3.50278 10.412 3.67958C10.1247 3.85637 9.79693 3.98897 9.4286 4.07737C9.06028 4.1584 8.67722 4.19891 8.27943 4.19891H7.87058Z" fill="white"/>
<path d="M0.607738 7.86738V6.53036H2.82874C3.1897 6.53036 3.47331 6.44196 3.67958 6.26516C3.88584 6.081 3.98897 5.83791 3.98897 5.53588C3.98897 5.21912 3.87479 4.96866 3.64643 4.78449C3.41806 4.60033 3.10499 4.51193 2.70719 4.5193H0.607738V3.34802L1.94476 3.37012C2.66668 3.37012 3.29652 3.45115 3.83427 3.61322C4.37203 3.76791 4.78824 4.01101 5.0829 4.3425C5.38492 4.674 5.53594 5.1123 5.53594 5.65743C5.53594 6.12888 5.42912 6.53036 5.21549 6.86185C5.00187 7.19334 4.70352 7.44381 4.32046 7.61324C3.9374 7.78267 3.48805 7.86738 2.97239 7.86738H0.607738ZM0 7.86738V0.132538H1.48067V7.86738H0ZM0.552489 4.59665V3.28172H2.65195C2.98344 3.28172 3.24495 3.19701 3.43648 3.02758C3.62801 2.85815 3.72377 2.61874 3.72377 2.30934C3.72377 1.99995 3.61696 1.76054 3.40333 1.59111C3.1897 1.41431 2.89872 1.3296 2.5304 1.33696H0.552489V0.143588L2.6188 0.121489C3.14919 0.121489 3.61328 0.206204 4.01107 0.375634C4.40886 0.537697 4.71825 0.784475 4.93925 1.11597C5.16024 1.4401 5.27074 1.84525 5.27074 2.33144C5.27074 2.72924 5.13446 3.09019 4.8619 3.41432C4.59671 3.73845 4.22101 3.99628 3.73482 4.18781C3.256 4.37934 2.69615 4.4751 2.05526 4.4751L0.552489 4.59665Z" fill="white"/>
</svg>
