<svg width="28" height="28" viewBox="0 0 28 28" fill="none" xmlns="http://www.w3.org/2000/svg">
<path fill-rule="evenodd" clip-rule="evenodd" d="M16.9743 13.0847C15.1579 12.4236 14.2213 10.4151 14.8824 8.59873L16.0795 5.3098C16.7406 3.49338 18.7491 2.55682 20.5655 3.21795L23.8544 4.41502C25.6708 5.07614 26.6074 7.08459 25.9463 8.90101L24.7492 12.1899C24.0881 14.0064 22.0796 14.9429 20.2632 14.2818L16.9743 13.0847ZM20.0175 9.84628C20.623 10.0667 21.2924 9.75447 21.5128 9.149C21.7332 8.54352 21.421 7.87404 20.8155 7.65367C20.2101 7.43329 19.5406 7.74548 19.3202 8.35095C19.0998 8.95643 19.412 9.62591 20.0175 9.84628Z" fill="#0B0C11"/>
<path fill-rule="evenodd" clip-rule="evenodd" d="M3.39521 12.3338C1.64332 13.1508 0.885374 15.2332 1.70229 16.9851L4.16757 22.2719C4.98449 24.0238 7.06692 24.7817 8.81881 23.9648L14.1056 21.4995C15.8575 20.6826 16.6154 18.6002 15.7985 16.8483L13.3332 11.5615C12.5163 9.8096 10.4339 9.05165 8.682 9.86857L3.39521 12.3338ZM7.47934 15.5772C7.75165 16.1611 7.499 16.8553 6.91504 17.1276C6.33107 17.3999 5.63693 17.1472 5.36462 16.5633C5.09231 15.9793 5.34496 15.2852 5.92893 15.0128C6.51289 14.7405 7.20703 14.9932 7.47934 15.5772ZM11.568 18.8206C12.152 18.5483 12.4046 17.8541 12.1323 17.2702C11.86 16.6862 11.1659 16.4336 10.5819 16.7059C9.99796 16.9782 9.74531 17.6723 10.0176 18.2563C10.2899 18.8403 10.9841 19.0929 11.568 18.8206Z" fill="#0B0C11"/>
</svg>
